<svg width="281" height="142" viewBox="0 0 281 142" fill="none" xmlns="http://www.w3.org/2000/svg">
<rect width="281" height="142" fill="#757575"/>
<path d="M43.2399 97V44.6364H49.5808V91.375H73.9217V97H43.2399ZM125.883 70.8182C125.883 76.3409 124.885 81.1136 122.891 85.1364C120.897 89.1591 118.161 92.2614 114.684 94.4432C111.207 96.625 107.235 97.7159 102.769 97.7159C98.3031 97.7159 94.3315 96.625 90.8542 94.4432C87.377 92.2614 84.6412 89.1591 82.6469 85.1364C80.6525 81.1136 79.6554 76.3409 79.6554 70.8182C79.6554 65.2955 80.6525 60.5227 82.6469 56.5C84.6412 52.4773 87.377 49.375 90.8542 47.1932C94.3315 45.0114 98.3031 43.9205 102.769 43.9205C107.235 43.9205 111.207 45.0114 114.684 47.1932C118.161 49.375 120.897 52.4773 122.891 56.5C124.885 60.5227 125.883 65.2955 125.883 70.8182ZM119.746 70.8182C119.746 66.2841 118.988 62.4574 117.471 59.3381C115.971 56.2188 113.934 53.858 111.36 52.2557C108.803 50.6534 105.939 49.8523 102.769 49.8523C99.5986 49.8523 96.7264 50.6534 94.1525 52.2557C91.5957 53.858 89.5588 56.2188 88.0417 59.3381C86.5417 62.4574 85.7917 66.2841 85.7917 70.8182C85.7917 75.3523 86.5417 79.179 88.0417 82.2983C89.5588 85.4176 91.5957 87.7784 94.1525 89.3807C96.7264 90.983 99.5986 91.7841 102.769 91.7841C105.939 91.7841 108.803 90.983 111.36 89.3807C113.934 87.7784 115.971 85.4176 117.471 82.2983C118.988 79.179 119.746 75.3523 119.746 70.8182ZM172.34 61C171.778 59.2784 171.036 57.7358 170.116 56.3722C169.212 54.9915 168.13 53.8153 166.868 52.8438C165.624 51.8722 164.209 51.1307 162.624 50.6193C161.039 50.108 159.3 49.8523 157.408 49.8523C154.306 49.8523 151.485 50.6534 148.945 52.2557C146.405 53.858 144.385 56.2188 142.885 59.3381C141.385 62.4574 140.635 66.2841 140.635 70.8182C140.635 75.3523 141.394 79.179 142.911 82.2983C144.428 85.4176 146.482 87.7784 149.073 89.3807C151.664 90.983 154.579 91.7841 157.817 91.7841C160.817 91.7841 163.459 91.1449 165.743 89.8665C168.045 88.571 169.834 86.7472 171.113 84.3949C172.408 82.0256 173.056 79.2386 173.056 76.0341L174.999 76.4432H159.249V70.8182H179.192V76.4432C179.192 80.7557 178.272 84.5057 176.431 87.6932C174.607 90.8807 172.084 93.3523 168.863 95.108C165.658 96.8466 161.976 97.7159 157.817 97.7159C153.181 97.7159 149.107 96.625 145.596 94.4432C142.101 92.2614 139.374 89.1591 137.414 85.1364C135.471 81.1136 134.499 76.3409 134.499 70.8182C134.499 66.6761 135.053 62.9517 136.161 59.6449C137.286 56.321 138.871 53.4915 140.917 51.1562C142.962 48.821 145.383 47.0312 148.178 45.7869C150.974 44.5426 154.05 43.9205 157.408 43.9205C160.17 43.9205 162.743 44.3381 165.13 45.1733C167.533 45.9915 169.672 47.1591 171.547 48.6761C173.439 50.1761 175.016 51.9744 176.278 54.071C177.539 56.1506 178.408 58.4602 178.885 61H172.34ZM234.234 70.8182C234.234 76.3409 233.237 81.1136 231.243 85.1364C229.248 89.1591 226.513 92.2614 223.035 94.4432C219.558 96.625 215.586 97.7159 211.121 97.7159C206.655 97.7159 202.683 96.625 199.206 94.4432C195.729 92.2614 192.993 89.1591 190.998 85.1364C189.004 81.1136 188.007 76.3409 188.007 70.8182C188.007 65.2955 189.004 60.5227 190.998 56.5C192.993 52.4773 195.729 49.375 199.206 47.1932C202.683 45.0114 206.655 43.9205 211.121 43.9205C215.586 43.9205 219.558 45.0114 223.035 47.1932C226.513 49.375 229.248 52.4773 231.243 56.5C233.237 60.5227 234.234 65.2955 234.234 70.8182ZM228.098 70.8182C228.098 66.2841 227.339 62.4574 225.822 59.3381C224.322 56.2188 222.285 53.858 219.711 52.2557C217.155 50.6534 214.291 49.8523 211.121 49.8523C207.95 49.8523 205.078 50.6534 202.504 52.2557C199.947 53.858 197.91 56.2188 196.393 59.3381C194.893 62.4574 194.143 66.2841 194.143 70.8182C194.143 75.3523 194.893 79.179 196.393 82.2983C197.91 85.4176 199.947 87.7784 202.504 89.3807C205.078 90.983 207.95 91.7841 211.121 91.7841C214.291 91.7841 217.155 90.983 219.711 89.3807C222.285 87.7784 224.322 85.4176 225.822 82.2983C227.339 79.179 228.098 75.3523 228.098 70.8182Z" fill="white"/>
</svg>
